<mxfile host="app.diagrams.net" agent="Mozilla/5.0 (X11; Linux x86_64) AppleWebKit/537.36 (KHTML, like Gecko) Chrome/134.0.0.0 Safari/537.36" version="26.2.9">
  <diagram name="Страница — 1" id="BTPaa4rk5kCRLCeoJVWf">
    <mxGraphModel dx="707" dy="879" grid="1" gridSize="10" guides="1" tooltips="1" connect="1" arrows="1" fold="1" page="1" pageScale="1" pageWidth="827" pageHeight="1169" math="0" shadow="0">
      <root>
        <mxCell id="0" />
        <mxCell id="1" parent="0" />
        <mxCell id="BRvhfNHX8y68QVM4szqf-1" value="App&lt;br&gt;app.d.ts" style="rounded=0;whiteSpace=wrap;html=1;" vertex="1" parent="1">
          <mxGeometry x="400" y="80" width="120" height="60" as="geometry" />
        </mxCell>
        <mxCell id="BRvhfNHX8y68QVM4szqf-6" style="edgeStyle=orthogonalEdgeStyle;rounded=0;orthogonalLoop=1;jettySize=auto;html=1;exitX=0.5;exitY=1;exitDx=0;exitDy=0;entryX=0.5;entryY=0;entryDx=0;entryDy=0;" edge="1" parent="1" source="BRvhfNHX8y68QVM4szqf-2" target="BRvhfNHX8y68QVM4szqf-3">
          <mxGeometry relative="1" as="geometry" />
        </mxCell>
        <mxCell id="BRvhfNHX8y68QVM4szqf-7" style="edgeStyle=orthogonalEdgeStyle;rounded=0;orthogonalLoop=1;jettySize=auto;html=1;exitX=0.5;exitY=1;exitDx=0;exitDy=0;entryX=0.5;entryY=0;entryDx=0;entryDy=0;" edge="1" parent="1" source="BRvhfNHX8y68QVM4szqf-2" target="BRvhfNHX8y68QVM4szqf-4">
          <mxGeometry relative="1" as="geometry" />
        </mxCell>
        <mxCell id="BRvhfNHX8y68QVM4szqf-2" value="layout.svelte" style="rounded=0;whiteSpace=wrap;html=1;" vertex="1" parent="1">
          <mxGeometry x="400" y="210" width="120" height="60" as="geometry" />
        </mxCell>
        <mxCell id="BRvhfNHX8y68QVM4szqf-3" value="PdfReader" style="rounded=0;whiteSpace=wrap;html=1;" vertex="1" parent="1">
          <mxGeometry x="200" y="340" width="120" height="60" as="geometry" />
        </mxCell>
        <mxCell id="BRvhfNHX8y68QVM4szqf-9" style="edgeStyle=orthogonalEdgeStyle;rounded=0;orthogonalLoop=1;jettySize=auto;html=1;exitX=0.5;exitY=1;exitDx=0;exitDy=0;entryX=0.5;entryY=0;entryDx=0;entryDy=0;" edge="1" parent="1" source="BRvhfNHX8y68QVM4szqf-4" target="BRvhfNHX8y68QVM4szqf-5">
          <mxGeometry relative="1" as="geometry" />
        </mxCell>
        <mxCell id="BRvhfNHX8y68QVM4szqf-4" value="ExpandNavigation" style="rounded=0;whiteSpace=wrap;html=1;" vertex="1" parent="1">
          <mxGeometry x="385" y="340" width="150" height="60" as="geometry" />
        </mxCell>
        <mxCell id="BRvhfNHX8y68QVM4szqf-11" value="" style="edgeStyle=orthogonalEdgeStyle;rounded=0;orthogonalLoop=1;jettySize=auto;html=1;" edge="1" parent="1" source="BRvhfNHX8y68QVM4szqf-5" target="BRvhfNHX8y68QVM4szqf-10">
          <mxGeometry relative="1" as="geometry" />
        </mxCell>
        <mxCell id="BRvhfNHX8y68QVM4szqf-5" value="MobileNav" style="rounded=0;whiteSpace=wrap;html=1;" vertex="1" parent="1">
          <mxGeometry x="400" y="470" width="120" height="60" as="geometry" />
        </mxCell>
        <mxCell id="BRvhfNHX8y68QVM4szqf-10" value="NavMenu" style="rounded=0;whiteSpace=wrap;html=1;" vertex="1" parent="1">
          <mxGeometry x="400" y="600" width="120" height="60" as="geometry" />
        </mxCell>
      </root>
    </mxGraphModel>
  </diagram>
</mxfile>
